#!OML:ASF X:\für Bonn\!DataBase\2005_08_11_Bastian_Final\c3d\Bastian.ASF
:FULLY-SPECIFIED
:DEGREES
122
root 20.7974 15.749 -3.33296 1073.43 -68.8342 30.752
lowerback 75.9781 -8.38005 14.472
upperback 12.2415 -0.770794 -0.880096
thorax -6.09497 -0.58811 -6.07512
lowerneck -4.98162 -4.28908 1.52295
upperneck -21.6752 -6.68905 -0.743685
head -5.83712 -3.74772 -0.214618
rclavicle -3.18055e-014 4.13472e-014
rhumerus 65.0749 -27.8279 -81.4744
rradius 9.38631
rwrist 25.9435
rhand -36.0313 0.943207
rfingers 7.12502
rthumb -9.14005 -28.8387
lclavicle -3.18055e-014 4.13472e-014
lhumerus -16.1613 -30.1401 -275.365
lradius 47.9601
lwrist -329.294
lhand -14.4134 -16.6697
lfingers 7.12502
lthumb 11.7305 12.9819
rfemur -73.193 -16.7605 18.9224
rtibia 67.8345
rfoot -10.6557 0.868001
rtoes 5.84496
lfemur -65.2975 -5.13901 -31.3206
ltibia 46.6337
lfoot 3.08724 -6.98675
ltoes -14.5701
123
root 20.7557 15.7433 -3.32621 1074.13 -68.6913 30.4995
lowerback 76.2381 -8.37599 14.421
upperback 11.9939 -0.709337 -0.95146
thorax -6.35938 -0.568496 -6.15524
lowerneck -4.69323 -4.28027 1.79051
upperneck -21.7114 -6.69599 -0.917286
head -5.9111 -3.75343 -0.304077
rclavicle -3.18055e-015 4.77083e-015
rhumerus 65.4461 -28.4102 -82.7591
rradius 9.40081
rwrist 26.9638
rhand -36.1937 1.16359
rfingers 7.12502
rthumb -9.29673 -28.6114
lclavicle -3.18055e-015 4.77083e-015
lhumerus -16.4297 -30.1882 -275.351
lradius 48.1606
lwrist -329.197
lhand -14.5173 -16.7318
lfingers 7.12502
lthumb 11.6303 12.9254
rfemur -73.6112 -16.7922 19.038
rtibia 68.0293
rfoot -10.87 0.680782
rtoes 5.7841
lfemur -65.7605 -5.25746 -31.2894
ltibia 46.8687
lfoot 2.98261 -7.12701
ltoes -14.8583
124
root 20.7141 15.7378 -3.31858 1074.75 -68.5497 30.2943
lowerback 76.4852 -8.35885 14.3518
upperback 11.7714 -0.654299 -1.00986
thorax -6.59812 -0.55198 -6.21229
lowerneck -4.4893 -4.27496 1.93205
upperneck -21.6808 -6.69022 -1.00049
head -5.94235 -3.7492 -0.348667
rclavicle 6.04305e-014 -3.4191e-014
rhumerus 65.8426 -28.9911 -84.0381
rradius 9.42616
rwrist 28.0031
rhand -36.3638 1.35032
rfingers 7.12502
rthumb -9.46083 -28.4173
lclavicle 6.04305e-014 -3.4191e-014
lhumerus -16.6749 -30.1584 -275.32
lradius 48.3273
lwrist -329.144
lhand -14.5539 -16.792
lfingers 7.12502
lthumb 11.5949 12.8672
rfemur -73.9934 -16.8498 19.1367
rtibia 68.2139
rfoot -11.0688 0.544602
rtoes 5.71722
lfemur -66.193 -5.38042 -31.2658
ltibia 47.0939
lfoot 2.89207 -7.24288
ltoes -14.9547
125
root 20.6721 15.7339 -3.31109 1075.46 -68.4067 30.0231
lowerback 76.7016 -8.32921 14.2927
upperback 11.5525 -0.584531 -1.06201
thorax -6.83352 -0.529876 -6.27351
lowerneck -4.27828 -4.26939 2.14507
upperneck -21.6805 -6.69744 -1.15225
head -5.98961 -3.75313 -0.425283
rclavicle -2.8625e-014 6.04305e-014
rhumerus 66.2017 -29.6089 -85.3176
rradius 9.51579
rwrist 28.9686
rhand -36.4784 1.63695
rfingers 7.12502
rthumb -9.57142 -28.1256
lclavicle -2.8625e-014 6.04305e-014
lhumerus -16.9073 -30.1928 -275.305
lradius 48.5212
lwrist -329.044
lhand -14.5472 -16.7977
lfingers 7.12502
lthumb 11.6015 12.8611
rfemur -74.3868 -16.8828 19.2629
rtibia 68.3825
rfoot -11.26 0.382814
rtoes 5.57299
lfemur -66.6373 -5.52654 -31.1863
ltibia 47.3097
lfoot 2.79216 -7.35472
ltoes -15.2476
126
root 20.6308 15.7298 -3.304 1076.09 -68.2825 29.763
lowerback 76.9264 -8.25556 14.1886
upperback 11.3769 -0.50804 -1.07666
thorax -7.02047 -0.50788 -6.27779
lowerneck -4.08461 -4.26676 2.22439
upperneck -21.68 -6.6938 -1.21265
head -6.02611 -3.74775 -0.452173
rclavicle -1.27222e-013 -3.4191e-014
rhumerus 66.6325 -30.1965 -86.5911
rradius 9.60234
rwrist 30.0149
rhand -36.6352 1.85513
rfingers 7.12502
rthumb -9.72265 -27.9005
lclavicle -1.27222e-013 -3.4191e-014
lhumerus -17.0834 -30.108 -275.246
lradius 48.672
lwrist -329.058
lhand -14.5841 -16.7866
lfingers 7.12502
lthumb 11.5659 12.8743
rfemur -74.7062 -16.9153 19.3764
rtibia 68.5365
rfoot -11.4682 0.240094
rtoes 5.52674
lfemur -67.0154 -5.63925 -31.1238
ltibia 47.5166
lfoot 2.68295 -7.45591
ltoes -15.547
127
root 20.5892 15.7274 -3.29665 1076.72 -68.1444 29.5287
lowerback 77.1473 -8.1572 14.0643
upperback 11.1722 -0.410525 -1.05985
thorax -7.24178 -0.483963 -6.24643
lowerneck -3.81025 -4.26306 2.34224
upperneck -21.7438 -6.69836 -1.32497
head -6.09998 -3.74559 -0.498029
rclavicle -6.99722e-014 2.22639e-014
rhumerus 66.975 -30.8134 -87.7951
rradius 9.73823
rwrist 31.1642
rhand -36.8053 2.16223
rfingers 7.12502
rthumb -9.8868 -27.5856
lclavicle -6.99722e-014 2.22639e-014
lhumerus -17.3478 -30.0392 -275.128
lradius 48.8687
lwrist -329.013
lhand -14.6044 -16.7624
lfingers 7.12502
lthumb 11.5463 12.8995
rfemur -75.0343 -16.9484 19.4871
rtibia 68.6814
rfoot -11.6732 0.0644345
rtoes 5.33656
lfemur -67.4045 -5.74878 -31.0756
ltibia 47.7141
lfoot 2.60489 -7.58963
ltoes -15.5228
128
root 20.5477 15.7265 -3.28923 1077.37 -67.9885 29.2382
lowerback 77.3169 -8.0841 13.9925
upperback 11.0342 -0.323646 -1.05386
thorax -7.38537 -0.455811 -6.24478
lowerneck -3.58256 -4.2707 2.44133
upperneck -21.8288 -6.71027 -1.3777
head -6.17067 -3.75117 -0.522632
rclavicle 0 -1.59028e-015
rhumerus 67.3942 -31.4961 -89.0561
rradius 9.88417
rwrist 32.4199
rhand -36.9919 2.46319
rfingers 7.12502
rthumb -10.0668 -27.276
lclavicle 0 -1.59028e-015
lhumerus -17.4888 -29.9879 -275.067
lradius 49.0354
lwrist -329.024
lhand -14.5715 -16.6882
lfingers 7.12502
lthumb 11.578 12.972
rfemur -75.3198 -17.008 19.606
rtibia 68.8111
rfoot -11.8601 -0.0784603
rtoes 5.30251
lfemur -67.7429 -5.89395 -30.9817
ltibia 47.8992
lfoot 2.50215 -7.69383
ltoes -15.6918
129
root 20.5066 15.7244 -3.28152 1077.95 -67.8487 28.9959
lowerback 77.5268 -7.97128 13.8805
upperback 10.8731 -0.214229 -1.02857
thorax -7.55397 -0.423913 -6.21424
lowerneck -3.25257 -4.28026 2.55205
upperneck -21.9826 -6.72219 -1.42368
head -6.28104 -3.75708 -0.542973
rclavicle -1.30403e-013 1.59028e-014
rhumerus 67.7842 -32.1804 -90.2846
rradius 10.0396
rwrist 33.7054
rhand -37.1766 2.86676
rfingers 7.12502
rthumb -10.245 -26.8637
lclavicle -1.30403e-013 1.59028e-014
lhumerus -17.7143 -29.9737 -274.963
lradius 49.2502
lwrist -329.005
lhand -14.5932 -16.6446
lfingers 7.12502
lthumb 11.5571 13.0168
rfemur -75.5667 -17.041 19.6929
rtibia 68.9381
rfoot -12.0685 -0.233518
rtoes 5.16894
lfemur -68.0574 -5.97695 -30.9575
ltibia 48.0768
lfoot 2.39473 -7.85436
ltoes -15.884
130
root 20.4659 15.7251 -3.27434 1078.58 -67.6971 28.6833
lowerback 77.6856 -7.86263 13.7841
upperback 10.7532 -0.113686 -1.00097
thorax -7.67896 -0.392378 -6.18491
lowerneck -2.96596 -4.2876 2.67702
upperneck -22.1111 -6.73083 -1.47197
head -6.37688 -3.76284 -0.568227
rclavicle 6.36111e-015 -2.62396e-014
rhumerus 67.0197 -32.111 -89.3221
rradius 10.2374
rwrist 33.1118
rhand -37.4887 2.90974
rfingers 7.12502
rthumb -10.5461 -26.8057
lclavicle 6.36111e-015 -2.62396e-014
lhumerus -17.922 -29.9302 -274.876
lradius 49.5037
lwrist -328.969
lhand -14.6304 -16.5488
lfingers 7.12502
lthumb 11.5212 13.1146
rfemur -75.8032 -17.0902 19.8182
rtibia 69.0492
rfoot -12.2683 -0.382801
rtoes 5.27251
lfemur -68.3611 -6.10297 -30.8558
ltibia 48.2404
lfoot 2.3027 -7.96524
ltoes -15.9801
131
root 20.4247 15.7233 -3.26655 1079.08 -67.5456 28.5276
lowerback 77.8244 -7.7101 13.6399
upperback 10.6335 -0.00203578 -0.948983
thorax -7.81085 -0.359566 -6.11536
lowerneck -2.6774 -4.30079 2.77433
upperneck -22.2315 -6.74641 -1.51365
head -6.4697 -3.77017 -0.586582
rclavicle 3.18055e-014 -2.06736e-014
rhumerus 66.2121 -32.0075 -88.2648
rradius 10.4371
rwrist 32.4089
rhand -37.7516 3.00118
rfingers 7.12502
rthumb -10.7997 -26.7012
lclavicle 3.18055e-014 -2.06736e-014
lhumerus -18.1346 -29.9019 -274.758
lradius 49.7367
lwrist -328.956
lhand -14.6179 -16.4789
lfingers 7.12502
lthumb 11.5332 13.1838
rfemur -76.049 -17.1497 19.8856
rtibia 69.1621
rfoot -12.465 -0.519714
rtoes 5.097
lfemur -68.6546 -6.19975 -30.8569
ltibia 48.4028
lfoot 2.19513 -8.12341
ltoes -16.2843
132
root 20.3841 15.7258 -3.25895 1079.66 -67.3766 28.2218
lowerback 78.0054 -7.61121 13.5633
upperback 10.5078 0.104911 -0.930631
thorax -7.9374 -0.324215 -6.10628
lowerneck -2.31534 -4.31393 3.02287
upperneck -22.4304 -6.77013 -1.62608
head -6.60888 -3.78826 -0.648563
rclavicle -1.20861e-013 1.35174e-014
rhumerus 65.3922 -31.9449 -87.2662
rradius 10.6766
rwrist 31.7991
rhand -37.9399 3.00954
rfingers 7.12502
rthumb -10.9813 -26.6833
lclavicle -1.20861e-013 1.35174e-014
lhumerus -18.3384 -29.9576 -274.692
lradius 49.9982
lwrist -328.911
lhand -14.6617 -16.3786
lfingers 7.12502
lthumb 11.4911 13.2864
rfemur -76.2101 -17.2184 19.9971
rtibia 69.2582
rfoot -12.6751 -0.640584
rtoes 5.01396
lfemur -68.8846 -6.30489 -30.7834
ltibia 48.5513
lfoot 2.08488 -8.26872
ltoes -16.3323
133
root 20.3437 15.7257 -3.25079 1080.33 -67.1929 27.8549
lowerback 78.0983 -7.47311 13.4679
upperback 10.4193 0.228604 -0.84979
thorax -8.03069 -0.287279 -6.02607
lowerneck -1.9869 -4.32222 3.17812
upperneck -22.5834 -6.78573 -1.72128
head -6.72379 -3.79604 -0.691963
rclavicle -7.95139e-014 3.4191e-014
rhumerus 64.2373 -31.5995 -85.5889
rradius 10.9907
rwrist 30.6641
rhand -38.0572 2.87966
rfingers 7.12502
rthumb -11.0944 -26.8071
lclavicle -7.95139e-014 3.4191e-014
lhumerus -18.4529 -29.8924 -274.566
lradius 50.1472
lwrist -328.913
lhand -14.6856 -16.2708
lfingers 7.12502
lthumb 11.468 13.3956
rfemur -76.411 -17.3027 20.1476
rtibia 69.3502
rfoot -12.8562 -0.778792
rtoes 4.97809
lfemur -69.1504 -6.42543 -30.6834
ltibia 48.7006
lfoot 2.02304 -8.40848
ltoes -16.1606
134
root 20.3027 15.7284 -3.24272 1080.83 -67.0207 27.627
lowerback 78.2448 -7.33467 13.3472
upperback 10.307 0.337855 -0.813489
thorax -8.1512 -0.252782 -5.98257
lowerneck -1.66265 -4.34244 3.43112
upperneck -22.7108 -6.81499 -1.83639
head -6.83485 -3.81636 -0.757664
rclavicle 8.90555e-014 -1.43125e-014
rhumerus 63.2689 -31.3902 -84.34
rradius 11.2783
rwrist 29.8706
rhand -38.154 2.69018
rfingers 7.12502
rthumb -11.1878 -26.9915
lclavicle 8.90555e-014 -1.43125e-014
lhumerus -18.5458 -29.9126 -274.49
lradius 50.3146
lwrist -328.85
lhand -14.6572 -16.1644
lfingers 7.12502
lthumb 11.4953 13.5004
rfemur -76.5682 -17.3797 20.2338
rtibia 69.4349
rfoot -13.0574 -0.916065
rtoes 4.96572
lfemur -69.3648 -6.52172 -30.6591
ltibia 48.8365
lfoot 1.89984 -8.57081
ltoes -16.3232
